<?xml version="1.0" standalone="no"?>
<!DOCTYPE svg PUBLIC "-//W3C//DTD SVG 20010904//EN"
 "http://www.w3.org/TR/2001/REC-SVG-20010904/DTD/svg10.dtd">
<svg version="1.0" xmlns="http://www.w3.org/2000/svg"
 width="200.000000pt" height="200.000000pt" viewBox="0 0 200.000000 200.000000"
 preserveAspectRatio="xMidYMid meet">

<g transform="translate(0.000000,200.000000) scale(0.100000,-0.100000)"
fill="#000000" stroke="none">
<path d="M766 1970 c-66 -17 -124 -34 -130 -39 -6 -5 -48 -28 -93 -51 -46 -24
-83 -47 -83 -51 0 -5 -12 -15 -28 -23 -27 -14 -94 -79 -169 -166 -80 -91 -163
-267 -198 -415 -21 -91 -28 -229 -16 -337 17 -168 115 -408 206 -508 18 -19
36 -42 41 -51 9 -14 94 -93 164 -150 40 -33 204 -114 262 -129 24 -6 59 -16
78 -22 19 -5 91 -12 160 -15 175 -8 307 18 445 86 126 62 157 85 267 196 104
104 172 211 223 349 58 156 60 168 59 366 l0 185 -42 122 c-43 125 -118 268
-169 324 -45 50 -150 152 -185 180 -60 48 -206 119 -300 145 -74 21 -122 27
-233 30 -130 4 -148 2 -259 -26z m354 1 c38 -7 41 -9 15 -11 -20 -2 -13 -5 25
-10 30 -4 97 -24 148 -44 51 -21 100 -35 108 -32 10 4 12 2 8 -6 -5 -7 -2 -9
8 -5 9 3 37 -9 67 -29 70 -47 65 -53 -6 -7 -32 20 -52 29 -44 19 8 -10 31 -26
50 -36 20 -10 74 -53 121 -97 59 -55 77 -68 61 -43 l-24 35 23 -22 c12 -11 23
-29 24 -40 2 -22 55 -103 68 -103 5 0 -5 18 -22 40 -17 22 -28 40 -23 40 13 0
56 -69 59 -93 3 -29 79 -179 87 -171 3 3 3 -3 1 -13 -3 -10 5 -52 16 -93 16
-55 24 -113 27 -215 5 -132 4 -147 -26 -268 -17 -71 -28 -134 -24 -139 3 -7 1
-8 -5 -4 -7 4 -21 -14 -36 -46 -32 -66 -28 -73 7 -10 15 26 27 43 27 37 0 -18
-56 -105 -63 -98 -4 3 -8 0 -9 -8 0 -8 -2 -19 -2 -25 -1 -12 -56 -94 -63 -94
-5 0 4 16 34 60 21 30 20 29 -9 -5 -69 -83 -196 -202 -264 -247 -39 -26 -120
-66 -180 -88 -90 -34 -107 -48 -29 -26 11 4 7 0 -10 -9 -20 -9 -44 -12 -74 -8
-25 3 -41 2 -38 -3 3 -5 -64 -9 -153 -9 -87 0 -153 3 -147 7 7 5 4 8 -9 8 -12
0 -55 11 -95 25 -130 45 -126 34 6 -16 29 -11 37 -17 20 -14 -51 10 -155 57
-148 68 4 6 0 8 -11 4 -10 -4 -15 -3 -11 3 3 6 -2 13 -12 17 -10 4 -40 22 -67
40 -50 34 -73 42 -59 21 13 -23 -71 49 -122 104 -29 30 -34 38 -12 18 44 -41
50 -27 6 16 -17 16 -51 57 -76 91 -25 34 -49 60 -53 58 -5 -3 -6 5 -3 17 3 16
2 19 -5 10 -6 -9 -18 5 -41 53 -18 37 -31 69 -28 71 3 3 13 -15 22 -40 10 -25
24 -51 32 -57 7 -7 -2 21 -22 62 -19 40 -35 83 -35 94 0 14 -3 16 -9 7 -12
-19 -39 84 -53 200 -9 73 -9 119 0 190 15 118 41 214 54 196 6 -8 8 -1 4 22
-3 19 -3 30 2 24 4 -6 20 18 39 58 18 38 28 66 22 62 -6 -3 -19 -26 -29 -50
-11 -24 -21 -44 -24 -44 -7 0 20 63 43 101 13 21 21 27 25 17 3 -7 4 -3 2 10
-2 12 -1 20 4 17 4 -2 28 24 54 59 25 34 77 93 116 131 76 73 88 93 24 43
l-39 -31 30 32 c17 17 40 33 52 35 26 5 70 29 103 55 39 32 15 24 -32 -9 -22
-16 -46 -30 -52 -30 -6 0 13 16 42 35 29 19 58 32 65 29 8 -3 44 9 82 26 37
17 87 35 111 41 24 6 44 15 44 20 0 4 17 6 38 3 27 -3 32 -2 17 5 -17 8 -15 9
15 13 59 8 193 7 240 -1z m-430 -57 c-47 -19 -92 -38 -100 -41 -8 -3 -12 -3
-9 1 11 11 162 76 179 76 8 0 -23 -16 -70 -36z m590 26 c18 -12 2 -12 -25 0
-13 6 -15 9 -5 9 8 0 22 -4 30 -9z m50 -20 c8 -5 11 -10 5 -10 -5 0 -17 5 -25
10 -8 5 -10 10 -5 10 6 0 17 -5 25 -10z m54 -25 c11 -8 16 -15 10 -15 -5 0
-18 7 -28 15 -11 8 -16 15 -10 15 5 0 18 -7 28 -15z m231 -153 c-3 -3 -18 7
-33 23 l-27 28 33 -23 c18 -12 31 -25 27 -28z m26 -29 c13 -16 12 -17 -3 -4
-10 7 -18 15 -18 17 0 8 8 3 21 -13z m-1281 -6 c0 -2 -15 -16 -32 -33 l-33
-29 29 33 c28 30 36 37 36 29z m-96 -117 c-41 -56 -71 -82 -34 -29 24 35 61
79 67 79 2 0 -13 -22 -33 -50z m1555 -110 c11 -24 11 -24 -3 -6 -9 11 -16 24
-16 30 0 12 5 7 19 -24z m41 -74 c0 -12 -5 -7 -19 24 -11 24 -11 24 3 6 9 -11
16 -24 16 -30z m39 -121 c0 -5 -4 -3 -9 5 -5 8 -9 22 -9 30 0 16 17 -16 18
-35z m8 -37 c-3 -8 -6 -5 -6 6 -1 11 2 17 5 13 3 -3 4 -12 1 -19z m10 -40 c-3
-8 -6 -5 -6 6 -1 11 2 17 5 13 3 -3 4 -12 1 -19z m10 -55 c-3 -10 -5 -4 -5 12
0 17 2 24 5 18 2 -7 2 -21 0 -30z m10 -135 c-2 -24 -4 -7 -4 37 0 44 2 63 4
43 2 -21 2 -57 0 -80z m0 -120 c-2 -13 -4 -3 -4 22 0 25 2 35 4 23 2 -13 2
-33 0 -45z m-10 -65 c-3 -10 -5 -4 -5 12 0 17 2 24 5 18 2 -7 2 -21 0 -30z
m-10 -45 c-3 -8 -6 -5 -6 6 -1 11 2 17 5 13 3 -3 4 -12 1 -19z m-13 -52 c-3
-15 -8 -25 -11 -23 -2 3 -1 17 3 31 3 15 8 25 11 23 2 -3 1 -17 -3 -31z
m-1639 -319 l36 -52 -45 50 c-25 28 -46 54 -46 58 0 16 18 -3 55 -56z m1435
-70 c0 -2 -12 -14 -27 -28 l-28 -24 24 28 c23 25 31 32 31 24z m-85 -85 c-6
-4 -23 -18 -40 -32 l-30 -25 29 33 c17 17 34 32 40 32 6 0 6 -3 1 -8z m-1074
-97 c28 -19 48 -35 43 -35 -9 0 -104 60 -104 66 0 9 13 2 61 -31z m942 1 c-67
-44 -81 -52 -68 -39 17 18 99 72 110 73 5 0 -14 -15 -42 -34z m-103 -52 c0 -6
-65 -34 -77 -33 -4 0 10 9 32 19 48 22 45 21 45 14z m-322 -81 c-26 -2 -71 -2
-100 0 -29 2 -8 3 47 3 55 0 79 -1 53 -3z"/>
<path d="M963 1963 c26 -2 67 -2 90 0 23 2 2 3 -48 3 -49 0 -68 -1 -42 -3z"/>
<path d="M869 1865 c-9 -8 1 -98 12 -109 16 -17 17 -2 6 57 -7 32 -15 56 -18
52z"/>
<path d="M917 1863 c-15 -14 -6 -43 19 -59 26 -18 23 -29 -11 -36 -19 -5 -19
-5 -1 -13 22 -10 50 5 54 28 2 9 -9 28 -25 41 l-28 25 25 10 25 10 -26 0 c-14
1 -29 -2 -32 -6z"/>
<path d="M1007 1863 c-4 -3 -7 -28 -7 -55 0 -36 4 -48 15 -48 12 0 15 13 15
55 0 51 -7 65 -23 48z"/>
<path d="M1096 1838 c-9 -12 -16 -30 -16 -40 0 -25 36 -58 63 -57 l22 0 -23
11 c-26 13 -39 54 -25 77 7 10 22 15 44 13 25 -1 30 0 19 8 -26 17 -68 11 -84
-12z"/>
<path d="M780 1831 c-11 -22 9 -51 36 -51 8 0 14 -7 14 -15 0 -8 -9 -15 -20
-15 -11 0 -20 -4 -20 -10 0 -16 37 -12 54 6 9 8 16 19 16 23 0 13 -24 31 -42
31 -24 0 -24 37 0 43 13 4 12 5 -5 6 -13 0 -27 -7 -33 -18z"/>
<path d="M706 1814 c-25 -24 -17 -46 22 -58 27 -9 29 -36 2 -36 -11 0 -20 -5
-20 -11 0 -7 10 -9 27 -4 58 14 57 66 -1 76 -24 5 -34 29 -12 29 9 0 16 5 16
10 0 15 -16 12 -34 -6z"/>
<path d="M1216 1789 c-20 -24 -36 -46 -36 -51 0 -13 17 -9 23 6 8 21 45 8 49
-17 2 -11 9 -22 16 -25 10 -3 12 11 10 59 -2 35 -8 64 -14 66 -7 2 -28 -15
-48 -38z m31 -26 c-3 -3 -11 -2 -17 2 -8 5 -7 11 2 22 12 15 13 14 16 -1 2
-10 1 -20 -1 -23z"/>
<path d="M1323 1793 c22 -6 22 -20 -4 -62 -13 -22 -17 -37 -11 -43 7 -7 19 6
37 35 17 30 31 44 41 40 8 -3 14 -3 14 1 0 10 -58 36 -77 35 -17 -1 -17 -2 0
-6z"/>
<path d="M606 1772 c-8 -13 6 -122 15 -122 5 0 9 11 9 24 0 26 27 43 44 26 12
-12 26 -13 26 -1 0 14 -88 82 -94 73z m34 -47 c10 -12 10 -15 -4 -15 -9 0 -16
7 -16 15 0 8 2 15 4 15 2 0 9 -7 16 -15z"/>
<path d="M1407 1721 c-14 -15 -29 -41 -32 -57 l-6 -29 23 27 c21 24 25 25 43
12 16 -12 18 -18 7 -34 -14 -23 -15 -30 -3 -30 14 0 62 80 55 91 -4 7 -12 5
-23 -5 -24 -21 -47 -6 -32 22 17 32 -2 34 -32 3z"/>
<path d="M480 1692 l-23 -19 38 -41 c36 -40 66 -49 46 -14 -6 10 -6 23 1 35 8
16 7 17 -10 8 -15 -8 -23 -7 -33 5 -11 14 -10 18 6 30 10 8 14 14 8 14 -6 0
-21 -8 -33 -18z"/>
<path d="M856 1689 c4 -8 -1 -9 -16 -4 -16 5 -20 4 -15 -5 5 -9 1 -10 -15 -5
-17 5 -21 4 -15 -6 6 -9 3 -11 -9 -6 -9 4 -15 3 -12 -2 7 -11 -50 -35 -63 -26
-6 3 -14 -1 -17 -10 -4 -9 -13 -14 -20 -11 -8 3 -13 0 -11 -6 1 -6 -4 -13 -12
-16 -9 -3 -11 0 -6 9 5 7 -10 -2 -33 -21 -23 -18 -40 -35 -37 -38 6 -7 -66
-92 -78 -92 -6 0 0 12 14 28 14 15 31 36 38 47 8 11 -5 0 -27 -25 -22 -25 -38
-49 -35 -53 3 -5 -1 -16 -9 -25 -33 -39 -90 -167 -105 -234 -32 -150 -16 -374
35 -473 14 -27 33 -66 43 -86 10 -20 36 -56 59 -79 22 -23 43 -47 47 -53 15
-23 102 -87 150 -111 167 -84 321 -99 483 -46 51 17 97 27 103 23 7 -3 9 -3 5
2 -4 4 13 22 39 39 26 17 61 41 80 54 18 12 33 19 33 15 0 -4 14 6 30 22 17
16 30 33 30 39 0 6 -13 -5 -30 -24 -16 -19 -29 -31 -30 -25 0 5 17 27 38 50
62 64 121 179 148 285 29 113 32 257 9 335 -9 28 -13 61 -10 75 4 14 3 22 -1
18 -3 -4 -20 20 -35 53 -32 67 -34 73 -19 64 16 -10 11 1 -7 16 -14 12 -16 12
-8 0 5 -9 4 -12 -3 -7 -6 4 -9 13 -6 21 4 9 -1 18 -11 21 -9 4 -14 13 -11 21
3 8 1 11 -4 8 -6 -3 -13 1 -16 9 -3 9 -11 13 -17 9 -6 -4 -8 0 -4 9 3 10 -3
24 -16 35 l-22 18 20 -25 c10 -14 -6 0 -37 30 -76 74 -93 90 -102 90 -4 0 -42
17 -84 38 l-77 37 -163 2 c-113 2 -161 -1 -156 -8z m334 -46 c238 -78 417
-300 437 -543 9 -107 9 -100 0 -197 -4 -45 -14 -99 -23 -120 -36 -90 -76 -161
-117 -210 l-45 -52 -7 27 c-11 45 -46 112 -56 106 -5 -3 -9 -28 -9 -55 0 -91
-61 -70 -76 27 -4 27 -11 43 -18 41 -18 -6 -35 45 -22 65 21 34 -34 109 -128
177 -60 44 -72 68 -80 166 -4 44 -9 92 -12 107 l-5 27 -52 -20 c-85 -34 -84
-34 -109 5 -13 20 -26 36 -29 36 -38 1 22 -133 81 -180 l42 -33 -27 -14 c-23
-13 -29 -12 -50 1 -48 32 -75 79 -75 134 l0 51 -36 -21 c-42 -25 -59 -50 -68
-100 -4 -21 -22 -58 -41 -83 -19 -25 -35 -49 -35 -53 0 -4 -21 -22 -46 -41
-24 -18 -52 -47 -61 -62 -10 -16 -21 -29 -24 -29 -31 0 -52 -73 -28 -97 7 -7
8 -17 2 -28 -8 -13 -15 -5 -36 42 -46 104 -59 166 -59 286 0 112 4 146 24 202
79 224 209 362 403 432 79 28 103 32 195 32 89 1 119 -3 190 -26z m-560 -69
c-8 -8 -23 -20 -34 -25 -13 -7 -9 -1 9 15 34 29 43 33 25 10z m367 -400 c-3
-3 -12 -4 -19 -1 -8 3 -5 6 6 6 11 1 17 -2 13 -5z m-13 -23 c4 -5 0 -12 -6
-14 -10 -4 -9 -8 2 -16 12 -9 11 -11 -8 -11 -27 0 -41 28 -21 41 18 11 26 11
33 0z m-374 -363 c0 -9 4 -8 11 2 8 11 9 -7 5 -66 -6 -77 -5 -82 21 -117 18
-24 34 -36 46 -33 9 2 17 0 17 -5 0 -5 -6 -9 -12 -9 -9 0 -10 -3 -2 -8 15 -10
10 -50 -8 -68 -14 -14 -19 -7 -52 78 -38 98 -60 238 -37 238 6 0 11 -6 11 -12z
m93 -139 c4 -29 4 -56 1 -60 -9 -16 -26 -9 -20 7 4 11 2 15 -8 11 -8 -3 -16 2
-19 14 -4 17 -3 18 9 8 16 -13 18 -6 14 44 -3 49 17 28 23 -24z"/>
<path d="M946 1471 c-16 -6 -11 -10 26 -19 25 -7 48 -19 52 -27 3 -8 14 -15
25 -15 11 0 25 -8 30 -17 10 -17 10 -17 11 1 0 10 -15 33 -34 52 -34 34 -67
42 -110 25z"/>
<path d="M823 1420 c-18 -11 -33 -26 -33 -34 0 -7 -7 -19 -16 -26 -17 -15 -16
-87 1 -82 5 1 10 8 11 15 0 6 2 18 2 25 3 17 42 15 42 -3 0 -25 17 -17 30 16
12 27 11 32 -9 45 -19 14 -20 17 -6 30 13 13 21 34 13 34 -2 0 -18 -9 -35 -20z"/>
<path d="M930 1344 c0 -4 8 -13 18 -21 12 -10 14 -16 5 -19 -15 -7 -17 -24 -3
-24 12 0 41 55 33 64 -8 8 -53 8 -53 0z"/>
<path d="M1038 1305 c-13 -28 1 -53 22 -40 9 6 9 10 -1 16 -10 6 -11 9 -1 9
14 0 16 26 2 35 -5 3 -15 -5 -22 -20z"/>
<path d="M1573 1020 c-24 -10 -34 -60 -12 -60 5 0 7 5 4 10 -3 6 -3 10 2 10 4
0 13 11 20 25 6 14 10 25 10 24 -1 0 -12 -4 -24 -9z"/>
<path d="M730 1650 c-8 -5 -10 -10 -5 -10 6 0 17 5 25 10 8 5 11 10 5 10 -5 0
-17 -5 -25 -10z"/>
<path d="M1508 1639 c-46 -27 -42 -80 8 -99 62 -24 115 57 62 94 -26 18 -46
20 -70 5z m68 -24 c10 -24 -24 -67 -49 -63 -46 6 -23 78 24 78 11 0 22 -7 25
-15z"/>
<path d="M392 1618 c-10 -13 -15 -40 -13 -65 0 -7 15 -20 32 -29 30 -15 33
-15 58 4 32 24 37 46 17 77 -18 28 -75 35 -94 13z m67 -24 c25 -32 26 -43 6
-50 -43 -17 -92 29 -65 61 18 22 36 18 59 -11z"/>
<path d="M1598 1535 c-48 -32 -53 -42 -32 -66 20 -23 42 -26 23 -3 -11 13 -7
20 24 48 57 50 48 62 -15 21z"/>
<path d="M300 1499 c-18 -33 -5 -51 34 -48 41 4 54 -5 36 -26 -7 -8 -8 -15 -2
-15 18 0 34 29 27 50 -7 22 -24 23 -67 5 -14 -5 -18 -2 -18 13 0 11 5 22 12
24 9 3 9 6 1 11 -7 5 -17 -1 -23 -14z"/>
<path d="M1643 1464 c-24 -14 -43 -30 -43 -34 0 -18 18 -19 34 -1 10 11 28 22
42 25 13 4 24 13 24 21 0 20 -8 19 -57 -11z"/>
<path d="M260 1432 c0 -13 55 -50 84 -58 36 -9 33 11 -4 26 -16 7 -35 18 -41
26 -12 15 -39 19 -39 6z"/>
<path d="M1651 1404 c-19 -25 -19 -45 2 -71 5 -7 14 -13 19 -13 6 0 5 7 -2 15
-17 21 -4 61 22 69 17 4 29 -1 46 -20 25 -29 30 -10 6 24 -21 31 -67 29 -93
-4z"/>
<path d="M429 1383 c-13 -16 -12 -17 4 -4 16 13 21 21 13 21 -2 0 -10 -8 -17
-17z"/>
<path d="M232 1378 c-15 -15 -15 -61 0 -76 7 -7 28 -12 48 -12 43 0 60 15 59
50 0 23 -1 23 -9 5 -4 -12 -15 -27 -24 -34 -13 -11 -20 -11 -41 3 -27 18 -32
45 -13 64 7 7 8 12 2 12 -6 0 -15 -5 -22 -12z"/>
<path d="M395 1330 c-9 -16 -13 -30 -11 -30 3 0 12 14 21 30 9 17 13 30 11 30
-3 0 -12 -13 -21 -30z"/>
<path d="M1717 1288 c-23 -18 -30 -60 -14 -82 12 -16 13 -14 9 18 -4 31 -1 37
22 46 35 13 54 4 65 -34 9 -31 9 -31 10 -3 2 50 -54 83 -92 55z"/>
<path d="M102 1238 c-27 -106 -35 -228 -23 -329 7 -54 18 -118 26 -141 16 -47
14 -23 -7 72 -17 83 -14 262 6 353 19 82 17 120 -2 45z"/>
<path d="M190 1271 c0 -6 19 -16 43 -22 l42 -12 -52 -15 c-58 -16 -66 -28 -29
-42 42 -16 99 -24 93 -13 -4 6 -24 14 -44 18 -32 6 -35 9 -18 15 11 5 33 11
48 15 35 7 33 36 -3 45 -69 18 -80 20 -80 11z"/>
<path d="M1641 1215 c1 -19 18 -51 18 -35 0 8 -4 22 -9 30 -5 8 -9 11 -9 5z"/>
<path d="M341 1174 c0 -11 3 -14 6 -6 3 7 2 16 -1 19 -3 4 -6 -2 -5 -13z"/>
<path d="M1780 1183 c-53 -8 -70 -14 -70 -23 0 -6 13 -10 29 -10 42 0 50 -36
10 -44 -34 -7 -39 -26 -6 -26 52 0 97 13 97 27 0 11 -7 14 -24 11 -18 -4 -26
0 -29 13 -6 22 0 29 26 29 10 0 17 5 15 12 -5 14 -15 16 -48 11z"/>
<path d="M1662 1140 c0 -14 2 -19 5 -12 2 6 2 18 0 25 -3 6 -5 1 -5 -13z"/>
<path d="M208 1128 c-29 -6 -48 -16 -48 -24 0 -16 85 -67 102 -62 8 3 5 9 -8
16 -27 14 -22 62 7 62 11 0 19 5 19 10 0 12 -8 11 -72 -2z m12 -33 c0 -8 -4
-15 -9 -15 -13 0 -22 16 -14 24 11 11 23 6 23 -9z"/>
<path d="M331 1124 c0 -11 3 -14 6 -6 3 7 2 16 -1 19 -3 4 -6 -2 -5 -13z"/>
<path d="M1672 1080 c0 -19 2 -27 5 -17 2 9 2 25 0 35 -3 9 -5 1 -5 -18z"/>
<path d="M324 1000 c0 -52 1 -74 3 -47 2 26 2 68 0 95 -2 26 -3 4 -3 -48z"/>
<path d="M1724 1023 c-11 -41 6 -58 65 -61 34 -2 51 1 51 9 0 8 -10 9 -31 5
-37 -7 -69 8 -69 34 0 14 9 21 38 25 67 11 68 13 10 14 -54 1 -58 0 -64 -26z"/>
<path d="M252 1018 c-7 -7 -32 -13 -55 -13 -40 0 -42 -1 -45 -32 l-3 -33 60 0
c34 0 61 4 61 10 0 6 -12 10 -27 10 l-28 1 29 23 c16 13 27 29 25 35 -3 9 -8
8 -17 -1z m-44 -46 c2 -7 -7 -12 -23 -12 -24 0 -26 2 -15 15 14 17 31 16 38
-3z"/>
<path d="M1672 920 c0 -19 2 -27 5 -17 2 9 2 25 0 35 -3 9 -5 1 -5 -18z"/>
<path d="M1720 926 c0 -10 9 -16 25 -16 35 0 31 -19 -5 -26 -16 -4 -30 -13
-30 -20 0 -11 5 -11 25 -2 20 9 31 8 50 -2 29 -16 42 -8 49 32 4 23 1 28 -25
32 -16 3 -42 9 -59 12 -23 4 -30 2 -30 -10z m100 -35 c0 -11 -26 -22 -34 -14
-12 12 -5 23 14 23 11 0 20 -4 20 -9z"/>
<path d="M161 883 c-1 -36 7 -39 82 -27 44 8 50 24 8 24 -20 0 -31 6 -34 18
-4 13 -5 11 -6 -5 -1 -14 -7 -23 -16 -23 -9 0 -20 10 -25 23 -8 20 -9 19 -9
-10z"/>
<path d="M331 864 c0 -11 3 -14 6 -6 3 7 2 16 -1 19 -3 4 -6 -2 -5 -13z"/>
<path d="M341 824 c0 -11 3 -14 6 -6 3 7 2 16 -1 19 -3 4 -6 -2 -5 -13z"/>
<path d="M1651 823 c-1 -6 -4 -20 -7 -30 -5 -17 -5 -17 6 0 6 10 9 23 6 30 -3
9 -5 9 -5 0z"/>
<path d="M1704 805 c-9 -13 -14 -30 -11 -37 4 -8 8 -5 12 10 6 18 15 22 46 22
l39 0 1 -42 1 -43 10 32 c22 69 -59 117 -98 58z"/>
<path d="M270 800 c0 -5 4 -10 9 -10 6 0 13 5 16 10 3 6 -1 10 -9 10 -9 0 -16
-4 -16 -10z"/>
<path d="M198 735 c2 -16 9 -37 14 -45 8 -13 9 -12 4 2 -4 13 6 21 45 33 27 9
49 20 49 24 0 17 -14 19 -52 5 -50 -17 -55 -17 -61 -1 -2 6 -2 -1 1 -18z"/>
<path d="M1677 726 c-2 -6 6 -15 19 -21 18 -8 20 -14 13 -33 -7 -20 -12 -21
-30 -12 -15 9 -24 9 -32 1 -7 -7 -1 -15 24 -25 57 -23 79 -28 79 -17 0 5 -9
13 -20 16 -23 7 -25 15 -7 39 11 15 18 16 34 8 20 -11 33 -7 33 10 0 4 -8 8
-18 8 -10 0 -34 8 -54 19 -25 12 -38 15 -41 7z"/>
<path d="M380 706 c0 -11 30 -66 36 -66 2 0 -3 15 -12 33 -19 36 -24 44 -24
33z"/>
<path d="M285 688 c-2 -7 -5 -22 -7 -33 -4 -24 -38 -34 -38 -11 0 9 -4 16 -10
16 -13 0 -13 -6 0 -31 6 -10 21 -19 34 -19 24 0 36 17 36 51 0 25 20 25 27 -1
7 -25 23 -26 23 -2 0 35 -55 60 -65 30z"/>
<path d="M1568 623 c-18 -21 -31 -43 -25 -43 2 0 13 14 25 30 25 33 24 41 0
13z"/>
<path d="M420 626 c0 -2 8 -10 18 -17 15 -13 16 -12 3 4 -13 16 -21 21 -21 13z"/>
<path d="M495 530 c10 -11 20 -20 23 -20 3 0 -3 9 -13 20 -10 11 -20 20 -23
20 -3 0 3 -9 13 -20z"/>
<path d="M1561 490 c-20 -33 -21 -52 -4 -96 5 -14 1 -13 -24 6 -41 30 -60 18
-33 -20 28 -40 25 -45 -15 -20 -31 19 -36 20 -62 7 -15 -8 -37 -25 -48 -38
-18 -20 -18 -22 -2 -16 13 5 25 -4 45 -33 15 -22 30 -39 35 -40 14 0 7 26 -18
62 -21 31 -22 38 -10 48 11 9 23 5 60 -20 54 -37 70 -32 50 16 l-15 35 34 -21
c42 -25 49 -12 23 42 -11 21 -17 41 -15 44 3 3 20 -7 37 -22 31 -25 32 -26 51
-9 11 10 20 25 20 33 0 13 -3 12 -19 -2 -21 -19 -35 -8 -24 21 6 16 5 16 -10
4 -23 -18 -54 -7 -37 14 6 8 10 20 7 27 -2 8 -13 -1 -26 -22z"/>
<path d="M540 475 c13 -14 26 -25 28 -25 3 0 -5 11 -18 25 -13 14 -26 25 -28
25 -3 0 5 -11 18 -25z"/>
<path d="M1396 435 c-11 -8 -15 -15 -9 -15 6 0 16 7 23 15 16 19 11 19 -14 0z"/>
<path d="M632 405 c15 -16 29 -27 31 -24 3 2 -10 15 -27 28 l-31 24 27 -28z"/>
<path d="M461 374 c-42 -19 -52 -27 -43 -36 9 -9 15 -9 24 0 17 17 48 -13 40
-40 -3 -14 -1 -19 8 -16 14 4 52 97 44 110 -7 11 -12 10 -73 -18z m42 -14 c-6
-21 -24 -23 -30 -3 -2 6 4 13 14 16 10 3 19 5 20 6 0 0 -1 -8 -4 -19z"/>
<path d="M561 351 c-10 -7 -12 -20 -7 -50 6 -40 -6 -57 -18 -25 -3 8 -11 12
-17 9 -15 -10 19 -45 43 -45 25 0 34 26 21 61 -13 33 -7 42 18 28 13 -6 19 -6
19 0 0 6 -9 15 -19 21 -23 12 -22 12 -40 1z"/>
<path d="M730 350 c8 -5 20 -10 25 -10 6 0 3 5 -5 10 -8 5 -19 10 -25 10 -5 0
-3 -5 5 -10z"/>
<path d="M1230 340 c-8 -5 -10 -10 -5 -10 6 0 17 5 25 10 8 5 11 10 5 10 -5 0
-17 -5 -25 -10z"/>
<path d="M611 271 c-25 -59 -25 -61 -7 -61 7 0 16 9 19 20 6 22 14 24 36 11
10 -6 11 -13 2 -29 -15 -28 7 -43 23 -16 34 58 42 126 9 77 -21 -31 -56 -14
-47 22 11 44 -13 27 -35 -24z"/>
<path d="M858 303 c7 -3 16 -2 19 1 4 3 -2 6 -13 5 -11 0 -14 -3 -6 -6z"/>
<path d="M374 292 c8 -14 86 -75 86 -68 0 3 -12 17 -27 31 -32 30 -69 53 -59
37z"/>
<path d="M1280 281 c-26 -50 5 -95 61 -89 40 4 57 37 40 81 -9 23 -16 27 -50
27 -30 0 -43 -5 -51 -19z m74 -10 c24 -26 17 -65 -11 -69 -14 -2 -27 5 -38 22
-33 50 10 90 49 47z"/>
<path d="M727 223 c-39 -47 -43 -63 -9 -42 25 16 52 5 52 -21 0 -11 6 -20 13
-20 9 0 11 18 9 65 -2 41 -8 65 -15 64 -7 0 -29 -21 -50 -46z m43 -8 c0 -8 -7
-15 -15 -15 -9 0 -12 6 -9 15 4 8 10 15 15 15 5 0 9 -7 9 -15z"/>
<path d="M1197 258 c-15 -12 -16 -18 -5 -65 14 -57 27 -65 66 -37 25 17 29 39
8 51 -8 4 -16 19 -18 33 -4 29 -26 36 -51 18z m30 -23 c8 -22 -6 -33 -17 -15
-13 20 -12 30 0 30 6 0 13 -7 17 -15z m21 -52 c-5 -24 -25 -27 -31 -3 -4 15 0
20 15 20 13 0 18 -6 16 -17z"/>
<path d="M819 195 c-7 -30 -10 -57 -8 -59 10 -10 59 -14 59 -5 0 5 -7 9 -16 9
-13 0 -15 7 -9 43 4 23 8 46 9 51 0 5 -4 10 -11 13 -7 2 -16 -17 -24 -52z"/>
<path d="M896 199 c-14 -69 -10 -79 32 -78 23 1 28 3 15 6 -14 3 -23 12 -23
23 0 11 9 20 23 23 l22 4 -23 8 c-28 9 -24 28 7 30 25 2 61 -44 61 -77 0 -10
6 -18 14 -18 9 0 12 7 9 19 -3 10 2 32 11 49 18 36 19 42 7 42 -5 0 -11 -10
-14 -22 l-6 -22 -24 22 c-16 15 -36 22 -64 22 -37 0 -41 -2 -47 -31z"/>
<path d="M1121 176 c-16 -19 -11 -29 8 -17 7 5 12 14 9 21 -3 9 -8 7 -17 -4z"/>
</g>
</svg>
